<?xml version="1.0" encoding="UTF-8"?>
<svg version="1.1" xmlns="http://www.w3.org/2000/svg" width="512" height="512">
<path d="M0 0 C168.96 0 337.92 0 512 0 C512 168.96 512 337.92 512 512 C343.04 512 174.08 512 0 512 C0 343.04 0 174.08 0 0 Z " fill="#003207" transform="translate(0,0)"/>
<path d="M0 0 C20.4278684 -0.34623506 41.04175117 1.54167037 61.29296875 4.12109375 C56.87875477 27.21010337 50.29956442 49.80070413 42.60546875 71.99609375 C42.19566772 73.18090332 42.19566772 73.18090332 41.77758789 74.38964844 C30.74925168 105.56059329 12.14839802 137.05766977 -18.578125 151.7734375 C-32.83239317 157.9129163 -47.55915547 159.49917767 -62.95703125 159.43359375 C-64.23594238 159.43230469 -65.51485352 159.43101562 -66.83251953 159.4296875 C-79.57599551 159.3039967 -92.10470504 157.93752922 -104.70703125 156.12109375 C-106.06218969 151.7877865 -104.86342228 148.78488221 -103.26953125 144.68359375 C-102.99729736 143.97565674 -102.72506348 143.26771973 -102.44458008 142.53833008 C-93.4723834 120.11664699 -75.50899397 100.88919952 -53.33496094 91.29589844 C-51.89959132 90.68988193 -50.45890345 90.0962773 -49.01269531 89.51660156 C-45.46552657 88.06477749 -43.88874961 87.39367129 -41.70703125 84.12109375 C-41.78870614 80.5493326 -41.78870614 80.5493326 -42.70703125 77.12109375 C-45.89825092 74.99361397 -46.91247895 74.85936791 -50.56640625 75.51953125 C-55.18623705 76.81780487 -59.42695012 78.98394123 -63.70703125 81.12109375 C-64.63128906 81.57742187 -65.55554688 82.03375 -66.5078125 82.50390625 C-73.25032096 85.99437032 -78.97937512 90.1554128 -84.70703125 95.12109375 C-85.45267334 95.75821289 -85.45267334 95.75821289 -86.21337891 96.40820312 C-92.77166346 102.04178378 -98.35622931 107.57216986 -102.70703125 115.12109375 C-103.87447043 117.09894741 -105.04755484 119.07331468 -106.22387695 121.04589844 C-107.03568581 122.41203886 -107.84042112 123.78241153 -108.63745117 125.15722656 C-111.48779559 130.01147592 -111.48779559 130.01147592 -113.70703125 131.12109375 C-112.62702272 95.03391204 -108.77912862 53.87523025 -81.70703125 27.12109375 C-80.959375 26.35152344 -80.21171875 25.58195312 -79.44140625 24.7890625 C-58.70980014 4.64096186 -27.57799158 0.90086168 0 0 Z " fill="#FDE400" transform="translate(322.70703125,153.87890625)"/>
<path d="M0 0 C13.94135383 3.39524127 25.08660484 9.84148169 33.1640625 21.8671875 C43.46070106 38.94971143 46.08827023 58.55823202 48.93359375 77.94921875 C51.8343066 103.54523736 51.8343066 103.54523736 63.87109375 125.69921875 C65.35609375 126.68921875 65.35609375 126.68921875 66.87109375 127.69921875 C66.66613281 128.3746875 66.46117187 129.05015625 66.25 129.74609375 C65.98058594 130.638125 65.71117187 131.53015625 65.43359375 132.44921875 C65.16675781 133.3309375 64.89992188 134.21265625 64.625 135.12109375 C63.98640881 137.3048771 63.40333542 139.48757373 62.87109375 141.69921875 C57.43999242 141.35977492 53.71069222 138.28988451 49.87109375 134.69921875 C37.2946296 119.6189734 35.08669462 98.28935307 32.30859375 79.57421875 C28.86448571 48.4129618 28.86448571 48.4129618 12.6640625 22.8828125 C7.4883572 19.32075993 2.53125516 16.8847767 -3.69140625 15.82421875 C-6.63628341 15.18616203 -8.15502698 14.6813802 -10.69140625 12.94921875 C-12.64859746 9.88578903 -12.78514361 8.27206658 -12.12890625 4.69921875 C-8.77169408 -0.56041365 -5.75029573 -0.93132576 0 0 Z " fill="#F8E100" transform="translate(140.12890625,163.30078125)"/>
<path d="M0 0 C4.61013868 2.27176978 8.1120608 5.1426807 10 10 C10.78671167 15.61936904 10.22202478 20.22251498 7 25 C1.82591056 29.66930023 -1.39385607 30.35792578 -8.234375 30.27734375 C-12.13698363 29.88598046 -14.17241898 28.68620197 -17 26 C-20.23629404 21.57706482 -20.67947161 17.11707637 -20.5625 11.765625 C-19.59639427 7.01560517 -16.61924708 4.06243984 -13 1 C-8.99099319 -1.00450341 -4.34700701 -0.62601581 0 0 Z " fill="#FAE200" transform="translate(304,327)"/>
<path d="M0 0 C4.32625381 2.20394062 7.64014223 4.73410327 10 9 C10.79163639 14.28296123 10.67068694 18.58123916 8.375 23.4375 C4.09462844 28.05579563 0.90785796 30.24254007 -5.4375 30.625 C-10.49831402 30.45262895 -13.10150348 29.12931807 -16.66015625 25.60546875 C-20.16759363 21.40267935 -20.37291712 18.78165994 -20.25 13.50390625 C-19.7690948 8.68734012 -17.99753325 5.92271825 -14.5 2.6875 C-9.89782236 -0.41896991 -5.39428648 -0.66504902 0 0 Z " fill="#FAE300" transform="translate(208,327)"/>
</svg>
